<svg width="143.000732" height="34.000000" viewBox="0 0 143.001 34" fill="none" xmlns="http://www.w3.org/2000/svg" xmlns:xlink="http://www.w3.org/1999/xlink">
	<desc>
			Created with Pixso.
	</desc>
	<defs/>
	<path id="Tech Hub" d="M138.184 20.2227C138.266 20.2227 138.408 20.1901 138.612 20.125Q138.526 21.5288 138.062 22.3223C137.753 22.8431 137.366 23.1035 136.903 23.1035C136.536 23.1035 136.223 22.835 135.963 22.2979C135.71 21.7526 135.584 21.0853 135.584 20.2959Q135.584 18.7212 136.097 16.4873Q136.61 14.2412 137.562 11.751Q137.965 10.7134 138.477 9.90771C138.819 9.37061 139.071 9.10205 139.234 9.10205C139.364 9.10205 139.429 9.31771 139.429 9.74902C139.429 10.221 139.295 10.7785 139.027 11.4214Q138.624 12.3735 138.038 13.106C137.802 13.4071 137.684 13.6146 137.684 13.7285C137.684 13.875 137.826 13.9482 138.111 13.9482C138.705 13.9482 139.311 13.757 139.93 13.3745C140.557 12.992 141.073 12.5078 141.48 11.9219Q142.103 11.0308 142.103 10.2251C142.103 9.46826 141.879 8.86198 141.431 8.40625C140.984 7.95052 140.386 7.72266 139.637 7.72266C138.905 7.72266 138.205 7.95866 137.537 8.43066C136.569 9.08171 135.71 9.98909 134.962 11.1528Q133.9 12.7642 133.131 14.4731C132.618 15.6043 132.219 16.7192 131.934 17.8179C131.65 18.9084 131.507 19.8931 131.507 20.772Q131.507 22.1636 131.983 23.2256C132.309 23.9255 132.764 24.4626 133.35 24.8369C133.936 25.2113 134.624 25.3984 135.413 25.3984Q135.94 25.3984 136.448 25.299Q137.692 25.0553 138.819 24.2144C139.877 23.425 140.723 22.367 141.358 21.0405Q141.694 20.338 141.912 19.6004Q142.31 18.2491 142.31 16.7803C142.31 16.1781 142.241 15.6532 142.103 15.2056C141.964 14.7498 141.765 14.404 141.505 14.168C141.244 13.9238 140.935 13.8018 140.577 13.8018Q140.357 13.8018 140.153 13.8564Q139.708 13.975 139.332 14.3511C138.827 14.8394 138.347 15.5921 137.891 16.6094C137.436 17.6266 137.208 18.4567 137.208 19.0996C137.208 19.4251 137.297 19.6937 137.476 19.9053C137.663 20.1169 137.9 20.2227 138.184 20.2227ZM88.636 10.2495L88.636 10.4448C88.636 10.8436 88.5709 11.3359 88.4407 11.9219C88.3186 12.4997 88.1396 13.1141 87.9036 13.7651C87.6676 14.408 87.4275 14.9533 87.1833 15.4009C86.9718 15.8078 86.866 16.0723 86.866 16.1943C86.866 16.2839 86.8985 16.3571 86.9636 16.4141C87.0287 16.471 87.102 16.4995 87.1833 16.4995C87.4519 16.4995 87.8263 16.3571 88.3064 16.0723C88.7947 15.7793 89.2301 15.4456 89.6125 15.0713C90.2148 14.4772 90.6827 13.8506 91.0164 13.1914C91.35 12.5322 91.5168 11.9097 91.5168 11.3237C91.5168 10.4855 91.2402 9.79785 90.6868 9.26074Q90.4566 9.03403 90.1878 8.87111Q89.5013 8.45508 88.5627 8.45508C88.2128 8.45508 87.8629 8.51204 87.5129 8.62598C87.163 8.73991 86.8171 8.91488 86.4753 9.15088C86.1417 9.37874 85.808 9.66764 85.4744 10.0176C85.1488 10.3594 84.8355 10.7622 84.5344 11.2261C84.1194 11.8853 83.684 12.6706 83.2283 13.582C82.7725 14.4854 82.3412 15.4334 81.9343 16.4263Q80.4084 20.2593 80.4084 22.7251Q80.4084 23.8726 80.7502 24.5928C80.9862 25.0648 81.2833 25.3008 81.6414 25.3008C82.4226 25.3008 83.5375 24.6009 84.9861 23.2012C85.3767 22.7861 86.1498 21.9845 87.3054 20.7964L87.3665 20.8452C87.2932 21.366 87.2566 21.8096 87.2566 22.1758Q87.2566 23.5674 87.8059 24.4341C88.1803 25.0119 88.6645 25.3008 89.2585 25.3008Q90.345 25.3008 91.6389 24.4463C91.9075 24.2835 92.0417 24.1452 92.0417 24.0312C92.0417 23.9661 91.9482 23.6325 91.761 23.0303Q91.4192 21.8462 91.3582 21.4556Q91.2849 20.9551 91.2849 20.5034C91.2849 19.8442 91.3704 19.0345 91.5413 18.0742C91.6389 17.6185 91.6877 17.2686 91.6877 17.0244C91.6877 16.6012 91.5942 16.2716 91.407 16.0356Q91.3043 15.8957 91.1678 15.8092Q90.9471 15.6694 90.6379 15.6694Q89.8567 15.6694 88.6604 16.4995C88.0256 16.9471 87.5089 17.3459 87.1101 17.6958C86.7113 18.0457 86.1051 18.6398 85.2913 19.478L85.2302 19.4292C85.3035 18.9165 85.3726 18.4404 85.4377 18.001C85.6249 16.8698 85.8894 15.7386 86.2312 14.6074C86.573 13.4681 86.9677 12.3898 87.4153 11.3726C87.5943 10.9738 87.7937 10.6117 88.0134 10.2861C88.2413 9.96061 88.4081 9.79785 88.5139 9.79785C88.5953 9.79785 88.636 9.94841 88.636 10.2495ZM105.128 20.6255L105.372 19.8198L109.73 19.8809C109.673 20.068 109.571 20.3651 109.425 20.772C108.806 22.6193 108.497 23.8359 108.497 24.4219C108.497 24.7637 108.607 25.0282 108.826 25.2153C109.046 25.4025 109.347 25.4961 109.73 25.4961C110.063 25.4961 110.483 25.4025 110.987 25.2153C111.492 25.02 111.939 24.7718 112.33 24.4707C112.509 24.3324 112.668 24.1655 112.806 23.9702C112.92 23.7912 113.034 23.5715 113.148 23.311C113.27 23.0425 113.42 22.6722 113.599 22.2002C113.778 21.7201 113.953 21.244 114.124 20.772C114.238 20.4465 114.324 20.2227 114.381 20.1006L114.429 19.9053C114.926 19.8076 115.26 19.714 115.43 19.6245C115.609 19.5187 115.821 19.3397 116.065 19.0874C116.317 18.827 116.553 18.5299 116.773 18.1963Q117.103 17.6958 117.103 17.4272C117.103 17.1587 116.973 16.9471 116.712 16.7925C116.452 16.6297 116.098 16.5483 115.65 16.5483C115.618 16.5483 115.589 16.5524 115.565 16.5605C115.54 16.5605 115.512 16.5646 115.479 16.5728C115.512 16.4832 115.609 16.235 115.772 15.8281C116.879 13.0938 117.432 11.2098 117.432 10.1763Q117.432 9.4706 117.083 9.06711Q116.617 8.52832 115.528 8.52832C114.788 8.52832 114.206 8.76025 113.782 9.22412C113.603 9.4113 113.412 9.69206 113.209 10.0664C113.005 10.4408 112.802 10.8761 112.598 11.3726C112.403 11.8608 112.167 12.5119 111.89 13.3257C111.614 14.1313 111.349 14.9492 111.097 15.7793L110.877 16.5483L106.373 16.646L106.422 16.5483C106.454 16.4588 106.487 16.3612 106.519 16.2554C106.56 16.1414 106.588 16.056 106.605 15.999C107.768 12.5648 108.35 10.6157 108.35 10.1519Q108.35 9.75022 108.185 9.43505Q108.145 9.35749 108.094 9.28516C107.931 9.03288 107.691 8.83757 107.374 8.69922C107.065 8.55273 106.706 8.47949 106.3 8.47949C105.64 8.47949 105.099 8.67887 104.676 9.07764C104.538 9.23226 104.371 9.44792 104.176 9.72461C103.695 10.5547 103.069 12.1864 102.296 14.6196Q101.783 16.3042 101.6 16.8291Q101.173 16.9634 100.721 17.415C100.42 17.7161 100.168 18.0579 99.9641 18.4404C99.7688 18.8148 99.6711 19.1525 99.6711 19.4536C99.6711 19.8768 99.9885 20.1494 100.623 20.2715C100.363 20.9714 100.127 21.7119 99.9153 22.4932C99.7037 23.2663 99.5979 23.8034 99.5979 24.1045Q99.5979 24.3478 99.6818 24.5575Q99.8126 24.8845 100.147 25.1299C100.513 25.3903 100.998 25.5205 101.6 25.5205C102.357 25.5205 103 25.2804 103.529 24.8003C103.683 24.6131 103.789 24.4707 103.846 24.373C104.131 23.8929 104.493 22.8838 104.932 21.3457C105.022 21.0446 105.087 20.8045 105.128 20.6255ZM57.7766 17.9033L57.8987 17.3784L58.0208 16.8779L58.2039 16.1455C58.4806 15.1038 58.6555 14.4894 58.7288 14.3022C58.9566 13.5454 59.0706 13.0531 59.0706 12.8252C59.0706 12.5892 58.9729 12.3735 58.7776 12.1782L59.0217 12.1294C59.1112 12.1131 59.1967 12.105 59.2781 12.105C60.2221 11.9504 60.7958 11.7591 60.9993 11.5312C61.1458 11.401 61.2678 11.2017 61.3655 10.9331C61.4713 10.6564 61.5242 10.3879 61.5242 10.1274C61.5242 9.8833 61.4428 9.66764 61.28 9.48047C61.0766 9.29329 60.8324 9.16716 60.5476 9.10205C60.2628 9.03695 59.6728 8.97998 58.7776 8.93115L58.448 8.89453L58.1062 8.87012C57.0483 8.79688 56.2222 8.75212 55.6282 8.73584Q54.7371 8.69922 54.2244 8.69922C53.6954 8.69922 53.2437 8.78874 52.8694 8.96777C52.495 9.13867 52.0881 9.44792 51.6487 9.89551Q50.6721 10.9331 50.6721 11.6045Q50.6721 11.9492 50.834 12.1807Q51.1651 12.6543 52.1736 12.6543Q53.6628 12.6543 55.2742 12.4224C55.144 12.7153 54.9202 13.2199 54.6028 13.936Q54.1389 15.0103 53.7605 15.9624C53.5164 16.5972 53.3048 17.1668 53.1257 17.6714C52.9548 18.1759 52.7636 18.77 52.552 19.4536Q51.5022 22.6763 51.5022 23.8726C51.5022 24.312 51.6405 24.6823 51.9172 24.9834Q52.1338 25.2062 52.3974 25.316Q52.6539 25.4229 52.9548 25.4229Q53.8337 25.4229 55.3718 24.4219C55.6973 24.2021 55.9415 23.9539 56.1042 23.6772C56.4623 23.0506 56.9343 21.484 57.5203 18.9775C57.5447 18.8799 57.565 18.7863 57.5813 18.6968C57.6057 18.5991 57.6342 18.4893 57.6667 18.3672C57.6993 18.237 57.7359 18.0824 57.7766 17.9033ZM64.6215 22.4246Q64.4279 22.2439 64.3684 21.9194C64.5556 22.009 64.7387 22.0537 64.9177 22.0537C65.3165 22.0537 65.7804 21.8991 66.3093 21.5898C66.8464 21.2806 67.3917 20.8493 67.9451 20.2959C68.6205 19.6367 69.1292 18.9491 69.4709 18.2329C69.8209 17.5168 69.9958 16.8291 69.9958 16.1699C69.9958 15.3236 69.7761 14.6603 69.3367 14.1802Q69.1618 13.9823 68.9505 13.8378Q68.3796 13.4478 67.5422 13.4478C66.4843 13.4478 65.3775 13.8302 64.2219 14.5952C63.286 15.23 62.4967 16.0234 61.8538 16.9756C61.3085 17.7894 60.8731 18.6642 60.5476 19.6001Q60.0715 20.9917 60.0715 22.1025Q60.0715 23.1396 60.5382 23.8843Q60.7252 24.1827 60.9871 24.4341C61.5974 25.0119 62.4112 25.3008 63.4285 25.3008Q64.0388 25.3008 64.8201 25.0688C65.3409 24.9061 65.8617 24.6904 66.3826 24.4219C66.9034 24.1452 67.4446 23.8034 68.0061 23.3965C68.5676 22.9814 69.064 22.5583 69.4954 22.127C69.7314 21.891 69.8494 21.6997 69.8494 21.5532C69.8494 21.4149 69.7436 21.2806 69.532 21.1504C69.3204 21.0202 69.0925 20.9551 68.8484 20.9551C68.6531 20.9551 68.2706 21.1626 67.7009 21.5776Q66.2361 22.6519 65.3206 22.6519Q64.865 22.6519 64.6215 22.4246ZM125.648 21.6753L125.855 21.5044C125.839 21.7974 125.823 22.0374 125.806 22.2246C125.79 22.4036 125.782 22.5298 125.782 22.603C125.782 23.189 125.88 23.6854 126.075 24.0923C126.27 24.4992 126.555 24.8084 126.929 25.02C127.312 25.2235 127.768 25.3252 128.297 25.3252C128.874 25.3252 129.383 25.2316 129.823 25.0444C130.262 24.8573 130.482 24.6416 130.482 24.3975L130.396 23.7017C130.372 23.4087 130.331 22.9896 130.274 22.4443C130.274 22.2327 130.27 22.0618 130.262 21.9316C130.262 21.7933 130.258 21.6427 130.25 21.48Q130.25 20.2593 130.396 18.5015C130.453 17.8993 130.482 17.4801 130.482 17.2441C130.482 16.113 130.156 15.5474 129.505 15.5474C129.163 15.5474 128.732 15.7305 128.211 16.0967Q127.43 16.6338 126.197 17.8545L125.806 18.2695L125.355 18.7212C124.891 19.1851 124.533 19.5716 124.281 19.8809C123.874 20.3366 123.573 20.6499 123.377 20.8208Q123.084 21.0771 122.901 21.0771C122.771 21.0771 122.706 20.9836 122.706 20.7964C122.706 20.479 123.056 19.5798 123.756 18.0986L123.902 17.7446Q124.305 16.9146 124.488 16.3164Q124.671 15.7183 124.671 15.1812C124.671 14.6603 124.512 14.2412 124.195 13.9238Q124.062 13.791 123.907 13.6953Q123.504 13.4478 122.95 13.4478C122.576 13.4478 122.25 13.5088 121.973 13.6309C121.184 13.9401 120.517 14.7946 119.971 16.1943C119.475 17.4557 119.08 18.7375 118.787 20.0396Q118.348 21.9805 118.348 23.4453C118.348 24.0231 118.478 24.4951 118.739 24.8613C119.007 25.2194 119.361 25.3984 119.801 25.3984Q120.191 25.3984 120.826 25.0933C121.249 24.8817 121.778 24.5562 122.413 24.1167C123.048 23.6691 123.853 23.0628 124.83 22.2979C125.334 21.9072 125.607 21.6997 125.648 21.6753ZM78.968 14.0825C78.6018 13.7489 78.1095 13.5698 77.491 13.5454L77.4421 13.5454C76.8236 13.5454 76.1889 13.7651 75.5378 14.2046Q74.1829 15.1323 73.1086 16.5117Q72.0466 17.8911 71.4241 19.4292C71.0172 20.4465 70.8137 21.4189 70.8137 22.3467Q70.8137 23.1438 71.1301 23.7847Q71.3661 24.2627 71.7781 24.6538Q72.1071 24.9662 72.4929 25.172Q73.238 25.5693 74.1951 25.5693Q75.0251 25.5693 76.0627 25.0811C76.7626 24.7474 77.3811 24.312 77.9182 23.7749Q78.7499 22.9086 78.9913 21.9008Q79.0901 21.4886 79.0901 21.0527Q79.0901 20.8686 78.9987 20.7874Q78.9264 20.7231 78.7971 20.7231C78.6669 20.7231 78.5164 20.833 78.3455 21.0527C77.9304 21.484 77.491 21.8462 77.0271 22.1392C76.5632 22.4321 76.1929 22.5786 75.9163 22.5786C75.6152 22.5786 75.3792 22.4199 75.2083 22.1025C75.0455 21.7852 74.9641 21.3498 74.9641 20.7964C74.9641 20.3081 75.0455 19.71 75.2083 19.002C75.3792 18.2939 75.5907 17.6266 75.843 17C75.9895 16.6012 76.1685 16.2554 76.3801 15.9624C76.5917 15.6694 76.7545 15.5229 76.8684 15.5229C76.9498 15.5229 76.9905 15.6979 76.9905 16.0479Q76.9905 16.9878 76.6088 17.732Q76.5642 17.819 76.5144 17.9033C76.4167 18.123 76.3679 18.2655 76.3679 18.3306C76.3679 18.5096 76.4941 18.5991 76.7463 18.5991Q76.7689 18.5991 76.7914 18.5985Q77.4154 18.5825 78.0281 18.123C78.4594 17.8057 78.8134 17.3988 79.0901 16.9023C79.3749 16.4059 79.5173 15.9136 79.5173 15.4253C79.5173 14.8638 79.3342 14.4162 78.968 14.0825ZM65.1985 20.772C65.0032 21.0243 64.7183 21.2765 64.344 21.5288C64.2789 21.2114 64.2463 20.9673 64.2463 20.7964C64.2463 20.3 64.344 19.71 64.5393 19.0264C64.7428 18.3346 65.0032 17.6429 65.3206 16.9512C65.8577 15.8037 66.2564 15.23 66.5168 15.23C66.704 15.23 66.7976 15.4538 66.7976 15.9014C66.7976 16.3815 66.7447 16.8983 66.6389 17.4517Q66.4802 18.2817 66.1995 18.9531C65.9635 19.6367 65.6298 20.243 65.1985 20.772Z" fill="#374B5C" fill-opacity="1.000000" fill-rule="evenodd"/>
	<path id="Path 36558" d="M22.4756 31.4202C17.6992 31.3889 12.9822 30.356 8.62964 28.3882C8.37061 28.2727 8.15063 28.0842 7.99658 27.8459C7.84277 27.6077 7.76147 27.3298 7.7627 27.0461L7.7627 15.134C7.76318 14.7441 7.91846 14.3704 8.19409 14.0945C8.46997 13.8188 8.84375 13.6636 9.23364 13.6631L35.7168 13.6631C36.1067 13.6636 36.4805 13.8188 36.7563 14.0945C37.032 14.3704 37.1873 14.7441 37.1877 15.134L37.1877 27.041C37.189 27.3247 37.1077 27.6028 36.9536 27.8411C36.7998 28.0793 36.5798 28.2676 36.3208 28.3831C31.969 30.3525 27.2522 31.3872 22.4756 31.4202Z" fill="#EEA10D" fill-opacity="1.000000" fill-rule="nonzero"/>
	<path id="Path 36559" d="M22.4717 21.769C22.2751 21.7693 22.0808 21.73 21.8997 21.6541L0.899658 12.7939C0.628662 12.6799 0.398193 12.4871 0.238037 12.2407C0.0776367 11.9944 -0.00512695 11.7056 0.000244141 11.4116C0.00561523 11.1177 0.098877 10.832 0.268066 10.5918C0.4375 10.3513 0.674805 10.1672 0.949707 10.063L21.9497 2.09595C22.2876 1.96631 22.6616 1.96631 22.9998 2.09595L43.7188 10.063C43.9919 10.168 44.2278 10.3523 44.3958 10.592C44.5637 10.8318 44.6565 11.1165 44.6619 11.4092C44.6672 11.7019 44.585 11.9897 44.426 12.2356C44.2668 12.4812 44.0378 12.6741 43.7686 12.7891L23.0496 21.6489C22.8669 21.7275 22.6704 21.7683 22.4717 21.769Z" fill="#EEA10D" fill-opacity="1.000000" fill-rule="nonzero"/>
	<path id="Ellipse 16" d="M12.1777 27.231C12.1777 28.3147 11.2993 29.1931 10.2156 29.1931C9.13208 29.1931 8.25366 28.3147 8.25366 27.231C8.25366 26.1475 9.13208 25.269 10.2156 25.269C11.2993 25.269 12.1777 26.1475 12.1777 27.231Z" fill="#FFFFFF" fill-opacity="1.000000" fill-rule="evenodd"/>
	<g opacity="0.200000">
		<path id="Path 36560" d="M43.8416 11.5291L23.1216 20.3889C22.96 20.4578 22.7861 20.4932 22.6106 20.4932C22.4351 20.4932 22.2612 20.4578 22.0996 20.3889L1.09961 11.5291C0.835938 11.4202 0.615967 11.2268 0.474609 10.979C0.38208 11.1396 0.324707 11.3179 0.306396 11.5022C0.288086 11.6868 0.309326 11.8728 0.368408 12.0483C0.42749 12.2241 0.523193 12.385 0.64917 12.521C0.775391 12.6567 0.928955 12.7642 1.09961 12.8359L22.0996 21.696C22.2612 21.7646 22.4351 21.8 22.6106 21.8C22.7861 21.8 22.96 21.7646 23.1216 21.696L43.8416 12.8359C44.0115 12.7634 44.1643 12.6558 44.2896 12.5198C44.4148 12.3838 44.5098 12.2229 44.5681 12.0476C44.6267 11.8723 44.6475 11.6868 44.6289 11.5029C44.6104 11.3188 44.553 11.1411 44.4607 10.981C44.3201 11.2266 44.1025 11.4189 43.8416 11.5281L43.8416 11.5291Z" fill="#000000" fill-opacity="1.000000" fill-rule="nonzero"/>
	</g>
	<path id="Path 36561" d="M10.3796 27.2231C10.4663 27.2231 10.5496 27.1885 10.6108 27.1272C10.6721 27.0659 10.7065 26.9827 10.7065 26.896L10.7065 15.9561L21.4895 12.0281C21.5764 12.0293 21.6599 11.9961 21.7222 11.9358C21.7847 11.8755 21.8203 11.7927 21.8215 11.7061C21.823 11.6194 21.7898 11.5356 21.7295 11.4734C21.6689 11.4111 21.5864 11.3752 21.4995 11.374L10.7166 15.302C10.6299 15.3 10.5435 15.3154 10.4629 15.3479C10.3821 15.3801 10.3088 15.4285 10.2476 15.49C10.1846 15.5503 10.1345 15.6226 10.1001 15.7026C10.0659 15.7827 10.0479 15.8689 10.0476 15.9561L10.0476 26.896C10.0476 26.9395 10.0562 26.9824 10.073 27.0222C10.0896 27.0623 10.1143 27.0986 10.145 27.1289C10.176 27.1594 10.2126 27.1833 10.2529 27.1995C10.2932 27.2158 10.3362 27.2236 10.3796 27.2231Z" fill="#FFFFFF" fill-opacity="1.000000" fill-rule="nonzero"/>
</svg>
